<mxfile host="app.diagrams.net" modified="2021-08-24T13:33:36.052Z" agent="5.0 (Windows NT 10.0; Win64; x64) AppleWebKit/537.36 (KHTML, like Gecko) Chrome/92.0.4515.159 Safari/537.36" etag="TU-x5QyWrcURRefXIQpC" version="14.9.8" type="github">
  <diagram id="4_khk9QNEK4tEK5fSOrA" name="Page-1">
    <mxGraphModel dx="1763" dy="623" grid="1" gridSize="10" guides="1" tooltips="1" connect="1" arrows="1" fold="1" page="1" pageScale="1" pageWidth="827" pageHeight="1169" math="0" shadow="0">
      <root>
        <mxCell id="0" />
        <mxCell id="1" parent="0" />
        <mxCell id="X-ZE1XZShB7dPA0Ak0Wa-11" style="edgeStyle=orthogonalEdgeStyle;rounded=0;orthogonalLoop=1;jettySize=auto;html=1;exitX=0.5;exitY=1;exitDx=0;exitDy=0;entryX=0.5;entryY=0;entryDx=0;entryDy=0;" edge="1" parent="1" source="X-ZE1XZShB7dPA0Ak0Wa-1" target="X-ZE1XZShB7dPA0Ak0Wa-2">
          <mxGeometry relative="1" as="geometry" />
        </mxCell>
        <mxCell id="X-ZE1XZShB7dPA0Ak0Wa-1" value="Start" style="ellipse;whiteSpace=wrap;html=1;" vertex="1" parent="1">
          <mxGeometry x="320" y="150" width="120" height="80" as="geometry" />
        </mxCell>
        <mxCell id="X-ZE1XZShB7dPA0Ak0Wa-12" style="edgeStyle=orthogonalEdgeStyle;rounded=0;orthogonalLoop=1;jettySize=auto;html=1;exitX=0.5;exitY=1;exitDx=0;exitDy=0;entryX=0.5;entryY=0;entryDx=0;entryDy=0;" edge="1" parent="1" source="X-ZE1XZShB7dPA0Ak0Wa-2" target="X-ZE1XZShB7dPA0Ak0Wa-3">
          <mxGeometry relative="1" as="geometry" />
        </mxCell>
        <mxCell id="X-ZE1XZShB7dPA0Ak0Wa-2" value="Initialise PA6,PA7,PA8 as input" style="rounded=0;whiteSpace=wrap;html=1;" vertex="1" parent="1">
          <mxGeometry x="320" y="260" width="120" height="60" as="geometry" />
        </mxCell>
        <mxCell id="X-ZE1XZShB7dPA0Ak0Wa-13" style="edgeStyle=orthogonalEdgeStyle;rounded=0;orthogonalLoop=1;jettySize=auto;html=1;exitX=0.5;exitY=1;exitDx=0;exitDy=0;entryX=0.5;entryY=0;entryDx=0;entryDy=0;" edge="1" parent="1" source="X-ZE1XZShB7dPA0Ak0Wa-3" target="X-ZE1XZShB7dPA0Ak0Wa-4">
          <mxGeometry relative="1" as="geometry" />
        </mxCell>
        <mxCell id="X-ZE1XZShB7dPA0Ak0Wa-3" value="Initialise PA10,PA11 as output" style="rounded=0;whiteSpace=wrap;html=1;" vertex="1" parent="1">
          <mxGeometry x="320" y="360" width="120" height="60" as="geometry" />
        </mxCell>
        <mxCell id="X-ZE1XZShB7dPA0Ak0Wa-4" value="Read PA6,PA7,PA8&amp;nbsp;" style="shape=parallelogram;perimeter=parallelogramPerimeter;whiteSpace=wrap;html=1;fixedSize=1;" vertex="1" parent="1">
          <mxGeometry x="300" y="450" width="160" height="60" as="geometry" />
        </mxCell>
        <mxCell id="X-ZE1XZShB7dPA0Ak0Wa-23" style="edgeStyle=orthogonalEdgeStyle;rounded=0;orthogonalLoop=1;jettySize=auto;html=1;exitX=0.5;exitY=1;exitDx=0;exitDy=0;entryX=0.589;entryY=0.022;entryDx=0;entryDy=0;entryPerimeter=0;" edge="1" parent="1" source="X-ZE1XZShB7dPA0Ak0Wa-7" target="X-ZE1XZShB7dPA0Ak0Wa-9">
          <mxGeometry relative="1" as="geometry" />
        </mxCell>
        <mxCell id="X-ZE1XZShB7dPA0Ak0Wa-7" value="NAND" style="shape=parallelogram;perimeter=parallelogramPerimeter;whiteSpace=wrap;html=1;fixedSize=1;" vertex="1" parent="1">
          <mxGeometry x="250" y="600" width="120" height="60" as="geometry" />
        </mxCell>
        <mxCell id="X-ZE1XZShB7dPA0Ak0Wa-24" style="edgeStyle=orthogonalEdgeStyle;rounded=0;orthogonalLoop=1;jettySize=auto;html=1;exitX=0.5;exitY=1;exitDx=0;exitDy=0;entryX=0.5;entryY=0;entryDx=0;entryDy=0;" edge="1" parent="1" source="X-ZE1XZShB7dPA0Ak0Wa-8" target="X-ZE1XZShB7dPA0Ak0Wa-10">
          <mxGeometry relative="1" as="geometry" />
        </mxCell>
        <mxCell id="X-ZE1XZShB7dPA0Ak0Wa-8" value="NOR" style="shape=parallelogram;perimeter=parallelogramPerimeter;whiteSpace=wrap;html=1;fixedSize=1;" vertex="1" parent="1">
          <mxGeometry x="380" y="600" width="120" height="60" as="geometry" />
        </mxCell>
        <mxCell id="X-ZE1XZShB7dPA0Ak0Wa-26" style="edgeStyle=orthogonalEdgeStyle;rounded=0;orthogonalLoop=1;jettySize=auto;html=1;exitX=0.5;exitY=1;exitDx=0;exitDy=0;entryX=0;entryY=0.5;entryDx=0;entryDy=0;" edge="1" parent="1" source="X-ZE1XZShB7dPA0Ak0Wa-9" target="X-ZE1XZShB7dPA0Ak0Wa-4">
          <mxGeometry relative="1" as="geometry">
            <Array as="points">
              <mxPoint x="300" y="790" />
              <mxPoint x="200" y="790" />
              <mxPoint x="200" y="480" />
            </Array>
          </mxGeometry>
        </mxCell>
        <mxCell id="X-ZE1XZShB7dPA0Ak0Wa-9" value="NAND output &lt;br&gt;to PA10" style="shape=parallelogram;perimeter=parallelogramPerimeter;whiteSpace=wrap;html=1;fixedSize=1;" vertex="1" parent="1">
          <mxGeometry x="240" y="710" width="120" height="60" as="geometry" />
        </mxCell>
        <mxCell id="X-ZE1XZShB7dPA0Ak0Wa-25" style="edgeStyle=orthogonalEdgeStyle;rounded=0;orthogonalLoop=1;jettySize=auto;html=1;exitX=0.5;exitY=1;exitDx=0;exitDy=0;entryX=1;entryY=0.5;entryDx=0;entryDy=0;" edge="1" parent="1" source="X-ZE1XZShB7dPA0Ak0Wa-10" target="X-ZE1XZShB7dPA0Ak0Wa-4">
          <mxGeometry relative="1" as="geometry">
            <mxPoint x="540" y="470" as="targetPoint" />
            <Array as="points">
              <mxPoint x="440" y="790" />
              <mxPoint x="540" y="790" />
              <mxPoint x="540" y="480" />
            </Array>
          </mxGeometry>
        </mxCell>
        <mxCell id="X-ZE1XZShB7dPA0Ak0Wa-10" value="NOR output&lt;br&gt;to PA11" style="shape=parallelogram;perimeter=parallelogramPerimeter;whiteSpace=wrap;html=1;fixedSize=1;" vertex="1" parent="1">
          <mxGeometry x="380" y="710" width="120" height="60" as="geometry" />
        </mxCell>
        <mxCell id="X-ZE1XZShB7dPA0Ak0Wa-20" style="edgeStyle=orthogonalEdgeStyle;rounded=0;orthogonalLoop=1;jettySize=auto;html=1;exitX=1;exitY=1;exitDx=0;exitDy=0;exitPerimeter=0;entryX=0.667;entryY=0.022;entryDx=0;entryDy=0;entryPerimeter=0;" edge="1" parent="1" source="X-ZE1XZShB7dPA0Ak0Wa-19" target="X-ZE1XZShB7dPA0Ak0Wa-7">
          <mxGeometry relative="1" as="geometry" />
        </mxCell>
        <mxCell id="X-ZE1XZShB7dPA0Ak0Wa-21" style="edgeStyle=orthogonalEdgeStyle;rounded=0;orthogonalLoop=1;jettySize=auto;html=1;exitX=1;exitY=0;exitDx=0;exitDy=0;exitPerimeter=0;entryX=0.422;entryY=-0.044;entryDx=0;entryDy=0;entryPerimeter=0;" edge="1" parent="1" source="X-ZE1XZShB7dPA0Ak0Wa-19" target="X-ZE1XZShB7dPA0Ak0Wa-8">
          <mxGeometry relative="1" as="geometry">
            <mxPoint x="430" y="590" as="targetPoint" />
          </mxGeometry>
        </mxCell>
        <mxCell id="X-ZE1XZShB7dPA0Ak0Wa-19" value="" style="strokeWidth=2;html=1;shape=mxgraph.flowchart.annotation_2;align=left;labelPosition=right;pointerEvents=1;direction=south;" vertex="1" parent="1">
          <mxGeometry x="330" y="510" width="100" height="50" as="geometry" />
        </mxCell>
      </root>
    </mxGraphModel>
  </diagram>
</mxfile>
